<?xml version="1.0" encoding="UTF-8"?><svg id="Layer_1" xmlns="http://www.w3.org/2000/svg" viewBox="0 0 500 500"><defs><style>.cls-1{fill:#fff;}.cls-2{fill:#1f5aff;}</style></defs><circle class="cls-2" cx="249.97" cy="250" r="250"/><path class="cls-1" d="m250.94,270.13c-36.12.35-65.67-28.65-66.02-64.76-.35-36.12,28.65-65.67,64.76-66.02h1.26v130.78Z"/><path class="cls-1" d="m304.8,288.29c0-26.95-16.53-51.14-41.64-60.93v121.85c25.11-9.79,41.64-33.97,41.64-60.92Z"/><path class="cls-1" d="m263.25,193.22c23.62,0,42.76-19.13,42.77-42.75,0-23.62-19.13-42.76-42.75-42.77h-.02v85.51h0Z"/><path class="cls-1" d="m220.64,342.7c-.02,20.89,11.66,40.04,30.24,49.59v-99.17c-18.57,9.55-30.24,28.69-30.24,49.57h0Z"/></svg>